<svg width="32" height="32" viewBox="0 0 32 32" fill="none" xmlns="http://www.w3.org/2000/svg">
<g clip-path="url(#clip0_152_15)">
<path d="M16 0C7.1632 0 0 7.1632 0 16C0 24.8368 7.1632 32 16 32C24.8368 32 32 24.8368 32 16C32 7.1632 24.8368 0 16 0Z" fill="white"/>
<path d="M25.141 20.8263C24.6575 21.8718 24.4265 22.3393 23.8061 23.2617C22.9393 24.552 21.7145 26.1618 20.2009 26.1734C18.8556 26.1838 18.4788 25.6113 16.6528 25.625C14.8268 25.6344 14.4748 26.1893 13.1273 26.1745C11.6148 26.1618 10.456 24.7109 9.58864 23.4245C7.20769 19.8803 6.95194 15.51 8.40559 13.3259C9.46599 11.7287 11.1451 10.7904 12.7209 10.7904C14.3263 10.7904 15.3356 11.8409 16.6622 11.8409C17.9514 11.8409 18.7351 10.7888 20.5919 10.7888C21.9961 10.7888 23.4811 11.5368 24.5415 12.826C21.2041 14.6135 21.8272 19.6003 25.141 20.8263Z" fill="#969696"/>
<path d="M13.1801 26.4494H13.1246C11.5043 26.4362 10.3124 24.9903 9.3604 23.5779C7.046 20.1327 6.54825 15.6199 8.1768 13.173C9.26525 11.5334 11.0065 10.5148 12.7209 10.5148C13.6179 10.5148 14.3478 10.8256 14.9918 11.0995C15.5545 11.3393 16.0863 11.5653 16.6622 11.5653C17.1891 11.5653 17.6307 11.3662 18.1417 11.1352C18.7874 10.8437 19.52 10.5132 20.5919 10.5132C22.0967 10.5132 23.6527 11.3123 24.7543 12.651L24.9672 12.9101L24.6713 13.0685C23.2682 13.8198 22.4982 15.2514 22.6115 16.8981C22.727 18.5811 23.7572 20.0216 25.2361 20.5683L25.515 20.6717L25.3901 20.9417C24.8896 22.0236 24.6592 22.485 24.0338 23.4156C23.0306 24.9089 21.7909 26.4368 20.2025 26.4489C20.202 26.4489 20.202 26.4489 20.2014 26.4489C19.5238 26.4489 19.0959 26.3251 18.6422 26.1948C18.1417 26.049 17.623 25.9 16.7199 25.9H16.6556C15.7233 25.9044 15.2014 26.054 14.6976 26.1986C14.2471 26.3273 13.8214 26.4494 13.1801 26.4494ZM12.7209 11.0648C11.1886 11.0648 9.62275 11.9894 8.63495 13.4771C7.1494 15.709 7.65815 20.0562 9.8169 23.2704C10.6886 24.564 11.7644 25.8879 13.1295 25.8989L13.1801 26.1739V25.8989C13.7439 25.8989 14.1157 25.7927 14.5458 25.6695C15.0606 25.5216 15.6441 25.3549 16.6517 25.3494H16.7199C17.7006 25.3494 18.2825 25.5172 18.7951 25.6651C19.2285 25.7905 19.603 25.8983 20.1657 25.8983C21.5319 25.8879 22.655 24.4821 23.5779 23.1082C24.1284 22.2887 24.3633 21.8437 24.7703 20.9709C23.2374 20.2801 22.1864 18.728 22.0626 16.9355C21.9422 15.1854 22.7045 13.6471 24.1158 12.755C23.1373 11.6902 21.8404 11.0626 20.5914 11.0626C19.6382 11.0626 18.992 11.3541 18.3677 11.6357C17.8221 11.8821 17.3068 12.1148 16.6616 12.1148C15.9741 12.1148 15.3647 11.8557 14.7762 11.6049C14.1514 11.3398 13.5057 11.0648 12.7209 11.0648Z" fill="#969696"/>
<path d="M19.4864 9.12006C20.2097 8.22136 20.8372 7.11751 20.6376 5.82501C19.4584 5.90366 17.9998 6.46796 17.194 7.41231C16.4636 8.27306 16.105 9.53806 16.341 10.775C17.628 10.8141 18.7131 10.0848 19.4864 9.12006Z" fill="#969696"/>
<path d="M16.4394 11.0517L16.1116 11.0434L16.0704 10.8267C15.8289 9.55951 16.1787 8.18286 16.9839 7.23466C17.8848 6.17921 19.4589 5.62866 20.6189 5.55056L20.8708 5.53406L20.9093 5.78321C21.1425 7.29351 20.3312 8.50956 19.7009 9.29276C18.7912 10.4269 17.6329 11.0517 16.4394 11.0517ZM20.3939 6.12531C19.4072 6.25236 18.129 6.74021 17.403 7.59106C16.7502 8.35941 16.4422 9.45556 16.5753 10.4984C17.5515 10.4522 18.5041 9.90546 19.2719 8.94791C20.092 7.92931 20.4528 7.02511 20.3939 6.12531Z" fill="#969696"/>
</g>
<defs>
<clipPath id="clip0_152_15">
<rect width="32" height="32" fill="white"/>
</clipPath>
</defs>
</svg>
