<svg width="32" height="32" viewBox="0 0 32 32" fill="none" xmlns="http://www.w3.org/2000/svg">
<g clip-path="url(#clip0_152_2)">
<path d="M16 0C7.1632 0 0 7.1632 0 16C0 24.8368 7.1632 32 16 32C24.8368 32 32 24.8368 32 16C32 7.1632 24.8368 0 16 0Z" fill="white"/>
<path d="M17.098 16.3927H20.5487L21.0907 12.8873H17.098V10.9713C17.098 9.51533 17.574 8.224 18.936 8.224H21.1247V5.16533C20.74 5.11333 19.9267 5 18.39 5C15.1807 5 13.2993 6.69467 13.2993 10.556V12.888H10V16.3933H13.2987V26.028C13.952 26.1253 14.614 26.192 15.2933 26.192C15.9073 26.192 16.5067 26.136 17.098 26.056V16.3927Z" fill="#2AA4F4"/>
</g>
<defs>
<clipPath id="clip0_152_2">
<rect width="32" height="32" fill="white"/>
</clipPath>
</defs>
</svg>
