<svg width="32" height="32" viewBox="0 0 32 32" fill="none" xmlns="http://www.w3.org/2000/svg">
<g clip-path="url(#clip0_152_5)">
<path d="M16 0C7.1632 0 0 7.1632 0 16C0 24.8368 7.1632 32 16 32C24.8368 32 32 24.8368 32 16C32 7.1632 24.8368 0 16 0Z" fill="white"/>
<path d="M24.9884 14.2047H24.25V14.1666H16V17.8333H21.1805C20.4247 19.9678 18.3939 21.5 16 21.5C12.9626 21.5 10.5 19.0374 10.5 16C10.5 12.9626 12.9626 10.5 16 10.5C17.402 10.5 18.6776 11.0289 19.6488 11.8929L22.2416 9.30006C20.6044 7.77427 18.4145 6.83331 16 6.83331C10.9377 6.83331 6.83333 10.9377 6.83333 16C6.83333 21.0623 10.9377 25.1666 16 25.1666C21.0623 25.1666 25.1667 21.0623 25.1667 16C25.1667 15.3854 25.1034 14.7854 24.9884 14.2047Z" fill="#FFC107"/>
<path d="M7.89024 11.7334L10.902 13.9421C11.7169 11.9245 13.6905 10.5 16 10.5C17.402 10.5 18.6776 11.0289 19.6488 11.8929L22.2416 9.30006C20.6044 7.77427 18.4145 6.83331 16 6.83331C12.4791 6.83331 9.42566 8.8211 7.89024 11.7334Z" fill="#FF3D00"/>
<path d="M16 25.1667C18.3677 25.1667 20.5192 24.2606 22.1458 22.787L19.3087 20.3863C18.3884 21.0834 17.2444 21.5 16 21.5C13.6157 21.5 11.5913 19.9797 10.8286 17.8581L7.83937 20.1612C9.35645 23.1298 12.4374 25.1667 16 25.1667Z" fill="#4CAF50"/>
<path d="M24.9884 14.2047H24.25V14.1667H16V17.8334H21.1805C20.8175 18.8586 20.158 19.7428 19.3073 20.3867C19.3078 20.3863 19.3083 20.3863 19.3087 20.3858L22.1458 22.7866C21.945 22.969 25.1667 20.5834 25.1667 16C25.1667 15.3854 25.1034 14.7854 24.9884 14.2047Z" fill="#1976D2"/>
</g>
<defs>
<clipPath id="clip0_152_5">
<rect width="32" height="32" fill="white"/>
</clipPath>
</defs>
</svg>
